<svg width="28" height="31" viewBox="0 0 28 31" fill="none" xmlns="http://www.w3.org/2000/svg">
<path d="M20.4597 14.7279C20.4638 15.7346 20.7625 16.7182 21.3189 17.5572C21.8754 18.3962 22.6652 19.054 23.5911 19.4494C23.2156 20.6278 22.6718 21.7457 21.9764 22.7685C21.0034 24.1895 19.9931 25.6059 18.4041 25.635C16.8407 25.6642 16.3391 24.7087 14.5541 24.7087C12.7679 24.7087 12.2091 25.6059 10.7332 25.6654C9.19791 25.7225 8.03008 24.1277 7.04891 22.7114C5.04225 19.8134 3.51158 14.5249 5.56725 10.9549C6.05004 10.0913 6.74871 9.36773 7.59492 8.85505C8.44113 8.34238 9.40591 8.0581 10.3949 8.03003C11.9022 8.00086 13.3232 9.04386 14.2449 9.04386C15.1654 9.04386 16.8932 7.7897 18.7109 7.97403C19.5532 8.00331 20.3772 8.22758 21.1181 8.62922C21.859 9.03086 22.4967 9.59891 22.9809 10.2887C22.2194 10.7548 21.5887 11.4066 21.148 12.183C20.7072 12.9595 20.4697 13.8351 20.4597 14.7279ZM17.5209 6.0572C18.4028 5.02507 18.8399 3.68565 18.7366 2.33203C17.4074 2.46101 16.178 3.09386 15.3007 4.1007C14.8625 4.58812 14.527 5.15888 14.3143 5.77889C14.1017 6.39889 14.0161 7.0554 14.0629 7.7092C14.7282 7.71923 15.3868 7.57534 15.9872 7.28877C16.5877 7.0022 17.1138 6.5807 17.5244 6.0572H17.5209Z" fill="white"/>
</svg>
