<svg width="24" height="27" viewBox="0 0 24 27" fill="none" xmlns="http://www.w3.org/2000/svg">
<g clip-path="url(#clip0_1506_17809)">
<path d="M11.2082 12.6426L0.104492 24.2759C0.229186 24.7178 0.453265 25.1254 0.759599 25.4674C1.06593 25.8094 1.44641 26.0769 1.87195 26.2493C2.29749 26.4218 2.75683 26.4946 3.21484 26.4623C3.67286 26.4301 4.11743 26.2935 4.51457 26.063L17.0084 18.9474L11.2082 12.6426Z" fill="#EA4335"/>
<path d="M22.4363 10.6649L17.0336 7.57031L10.9521 12.907L17.0583 18.9305L22.4199 15.8691C22.8949 15.6204 23.2927 15.2464 23.5703 14.7877C23.8479 14.329 23.9947 13.8031 23.9947 13.267C23.9947 12.7308 23.8479 12.2049 23.5703 11.7462C23.2927 11.2875 22.8949 10.9135 22.4199 10.6648L22.4363 10.6649Z" fill="#FBBC04"/>
<path d="M0.104242 2.20117C0.0371654 2.4493 0.00375601 2.70533 0.0049118 2.96236V23.515C0.00557414 23.772 0.0389527 24.0278 0.104242 24.2763L11.5886 12.9408L0.104242 2.20117Z" fill="#4285F4"/>
<path d="M11.291 13.2385L17.0332 7.57076L4.55599 0.421972C4.08654 0.147053 3.55262 0.00145488 3.00859 5.74714e-06C1.65854 -0.00261807 0.47164 0.893417 0.104492 2.19268L11.291 13.2385Z" fill="#34A853"/>
</g>
<defs>
<clipPath id="clip0_1506_17809">
<rect width="24" height="26.5193" fill="white"/>
</clipPath>
</defs>
</svg>
