<svg width="16" height="16" viewBox="0 0 16 16" fill="none" xmlns="http://www.w3.org/2000/svg">
<g clip-path="url(#clip0_1506_17934)">
<path d="M7.33316 13.332C6.16253 13.3356 5.03333 12.899 4.1695 12.109C3.30568 11.3189 2.77033 10.2331 2.66965 9.06677C2.56896 7.90048 2.91028 6.73894 3.62592 5.81253C4.34156 4.88611 5.37924 4.2625 6.53316 4.06536C10.3332 3.33203 11.3332 2.98536 12.6665 1.33203C13.3332 2.66536 13.9998 4.1187 13.9998 6.66536C13.9998 10.332 10.8132 13.332 7.33316 13.332Z" stroke="#50C878" stroke-width="1.33333" stroke-linecap="round" stroke-linejoin="round"/>
<path d="M1.33301 14C1.33301 12 2.56634 10.4267 4.71967 10C6.33301 9.68 7.99967 8.66667 8.66634 8" stroke="#50C878" stroke-width="1.33333" stroke-linecap="round" stroke-linejoin="round"/>
</g>
<defs>
<clipPath id="clip0_1506_17934">
<rect width="16" height="16" fill="white"/>
</clipPath>
</defs>
</svg>
